<svg xmlns="http://www.w3.org/2000/svg" xmlns:xlink="http://www.w3.org/1999/xlink" width="66.2" height="75.663" viewBox="0 0 66.2 75.663">
  <defs>
    <linearGradient id="linear-gradient" x1="0.5" x2="0.5" y2="1" gradientUnits="objectBoundingBox">
      <stop offset="0" stop-color="#b0bec5"/>
      <stop offset="1" stop-color="#78909c"/>
    </linearGradient>
  </defs>
  <g id="Логотипы_партнеров_Logo_Cosmos" data-name="Логотипы партнеров_Logo_Cosmos" transform="translate(-8.185 -4.402)">
    <path id="Path_33" data-name="Path 33" d="M89.118,12.76c-4.672,0-8.458,16.938-8.458,37.834s3.786,37.829,8.458,37.829,8.454-16.938,8.454-37.829S93.786,12.76,89.118,12.76ZM89.7,86.308a.671.671,0,0,1-1.069.177c-2.163-2.492-3.227-7.121-3.227-7.121-3.764-12.127-2.868-38.119-2.868-38.119,1.769-20.637,4.988-25.525,6.057-26.594a.671.671,0,0,1,.865-.065c1.588,1.125,2.92,5.828,2.92,5.828A111.269,111.269,0,0,1,95.958,48.72,146.938,146.938,0,0,1,93.985,74C92.207,84.153,89.7,86.29,89.7,86.29Z" transform="translate(-47.843 -8.358)" fill="url(#linear-gradient)"/>
    <path id="Path_34" data-name="Path 34" d="M89.63,54.873c-2.328-4.054-18.9,1.09-37.033,11.491S21.68,88.476,24,92.525s18.884-1.09,37.055-11.491,30.925-22.112,28.6-26.161Zm-63.489,37.1c-.891-.112-.688-.844-.688-.844,1.09-3.106,4.564-6.342,4.564-6.342C38.67,75.5,61.643,63.34,61.643,63.34c18.781-8.739,24.613-8.371,26.092-7.965a.666.666,0,0,1,.485.714c-.177,1.938-3.6,5.434-3.6,5.434a111.031,111.031,0,0,1-22.769,17.2,146.33,146.33,0,0,1-22.93,10.868c-9.691,3.5-12.793,2.384-12.793,2.384Z" transform="translate(-15.539 -31.465)" fill="url(#linear-gradient)"/>
    <path id="Path_35" data-name="Path 35" d="M89.642,92.48C91.982,88.439,79.224,76.672,61.153,66.2S26.533,50.515,24.171,54.573s10.418,15.808,28.5,26.287S87.3,96.542,89.642,92.48ZM25.724,56.139a.679.679,0,0,1,.376-1.025c3.236-.61,7.787.783,7.787.783,12.36,2.812,34.4,16.622,34.4,16.622,16.968,11.871,19.572,17.106,19.962,18.6a.666.666,0,0,1-.368.774c-1.769.809-6.511-.4-6.511-.4A111.312,111.312,0,0,1,55.087,80.392,144.85,144.85,0,0,1,34.208,66.02c-7.887-6.641-8.48-9.881-8.48-9.881Z" transform="translate(-15.633 -31.299)" fill="url(#linear-gradient)"/>
    <circle id="Ellipse_14" data-name="Ellipse 14" cx="4.452" cy="4.452" r="4.452" transform="translate(36.732 37.693)" fill="url(#linear-gradient)"/>
    <ellipse id="Ellipse_15" data-name="Ellipse 15" cx="2.583" cy="2.669" rx="2.583" ry="2.669" transform="translate(56.85 22.382)" fill="url(#linear-gradient)"/>
    <ellipse id="Ellipse_16" data-name="Ellipse 16" cx="2.583" cy="2.669" rx="2.583" ry="2.669" transform="translate(14.478 31.463)" fill="url(#linear-gradient)"/>
    <ellipse id="Ellipse_17" data-name="Ellipse 17" cx="2.583" cy="2.669" rx="2.583" ry="2.669" transform="translate(33.349 64.222)" fill="url(#linear-gradient)"/>
  </g>
</svg>
