<svg xmlns="http://www.w3.org/2000/svg" xmlns:xlink="http://www.w3.org/1999/xlink" width="60.351" height="68.997" viewBox="0 0 60.351 68.997">
  <defs>
    <linearGradient id="linear-gradient" x1="0.5" x2="0.5" y2="1" gradientUnits="objectBoundingBox">
      <stop offset="0" stop-color="#b0bec5"/>
      <stop offset="1" stop-color="#78909c"/>
    </linearGradient>
  </defs>
  <path id="Логотипы_партнеров_Logo_Enigma" data-name="Логотипы партнеров_Logo_Enigma" d="M71.871,16.7c-.069-.038-.141-.079-.221-.131q-7.017-4.016-14.014-8.042Q50.287,4.313,42.946.1L42.777,0l-.183.069a5.782,5.782,0,0,0-.807.376L29,7.935c-5.292,3.105-10.595,6.179-15.849,9.27a1.329,1.329,0,0,0-.628,1.4,2.76,2.76,0,0,1,0,.293q0,11.758-.038,23.519l-.021,8.729a1.125,1.125,0,0,0,.586,1.152l18.213,10.35,10.74,6.113A1.359,1.359,0,0,0,42.7,69a.811.811,0,0,0,.507-.173l15.577-8.97c4.423-2.546,8.849-5.1,13.245-7.628a1.187,1.187,0,0,0,.728-1.183L72.8,18.009a1.384,1.384,0,0,0-.949-1.314m-29.208,2.07,12.81,7.455L42.684,33.61,38.33,31.147c-2.867-1.628-5.737-3.243-8.625-4.871L42.66,18.782m14.559,6.445L43.312,17.133a1.107,1.107,0,0,0-1.252-.028L27.966,25.268l-12.8-7.245L24.1,12.81Q33.386,7.373,42.684,1.949q8.535,4.927,17.074,9.808,5.21,3,10.426,5.993L57.222,25.226M14.287,19.548l12.741,7.214.262,15.911a1.118,1.118,0,0,0,.593,1.111c2.819,1.628,5.648,3.243,8.477,4.868l5.437,3.1V66.619L14.225,50.956l.062-31.395m14.507,8.2,13.02,7.366V49.766L29.035,42.435l-.242-14.669M43.553,51.788,49,48.683c2.791-1.6,5.589-3.2,8.4-4.83l.079-.052a1.49,1.49,0,0,0,.5-.414l.079-.11v-.152c-.031-3.505-.031-7.083-.021-10.54V26.769l13.034-7.518-.021,12.834L71.012,50.8Q62.28,55.818,53.544,60.858L43.539,66.626l.021-14.835m0-2.008V35.135l12.831-7.4v14.68q-6.414,3.664-12.841,7.366M42.29,3.678a1.135,1.135,0,0,1,1.035.362,1.107,1.107,0,0,1-.649,1.849,1.911,1.911,0,0,1-.231.021,1.149,1.149,0,0,1-.98-.514A1.087,1.087,0,0,1,41.4,4.313a1.132,1.132,0,0,1,.88-.635m.738,4.83a1.1,1.1,0,0,1-.1,2,1.249,1.249,0,0,1-.507.114,1.111,1.111,0,0,1-.776-.3,1.059,1.059,0,0,1-.359-.921,1.138,1.138,0,0,1,.545-.869,1.166,1.166,0,0,1,1.2-.028m.052,4.737a1.121,1.121,0,0,1,.535,1.035,1.08,1.08,0,0,1-.69.918,1.245,1.245,0,0,1-.507.11,1.142,1.142,0,0,1-.718-.242,1.111,1.111,0,0,1,.141-1.86,1.194,1.194,0,0,1,1.225.041M24.319,44.177a1.035,1.035,0,0,1,1.09.328,1.1,1.1,0,0,1,.193,1.221,1.083,1.083,0,0,1-.78.638,1.067,1.067,0,0,1-.942-.235,1.1,1.1,0,0,1-.366-1.1,1.128,1.128,0,0,1,.79-.859M59.965,46.4a.942.942,0,0,1-.69-.283,1.135,1.135,0,0,1-.362-1.09,1.1,1.1,0,0,1,.759-.869,1.066,1.066,0,0,1,1.132.324,1.149,1.149,0,0,1-.845,1.918m-39.675.152a.994.994,0,0,1,1.063.193,1.149,1.149,0,0,1,.4,1.111,1.035,1.035,0,0,1-.628.807,1.132,1.132,0,0,1-.473.114,1.035,1.035,0,0,1-.545-.162,1.159,1.159,0,0,1-.538-1.1,1.094,1.094,0,0,1,.731-.942M63.9,48.79a1.114,1.114,0,0,1-.69-.245,1.152,1.152,0,0,1-.393-1.09,1.132,1.132,0,0,1,.728-.89,1.035,1.035,0,0,1,1.09.235,1.1,1.1,0,0,1,.345,1.111,1.118,1.118,0,0,1-1.09.88m-46.623.2a1.08,1.08,0,0,1,.576.959,1.1,1.1,0,0,1-.528,1,1.139,1.139,0,0,1-.6.183.973.973,0,0,1-.5-.131,1.118,1.118,0,0,1-.587-1A1.142,1.142,0,0,1,16.2,48.99a1.035,1.035,0,0,1,1.063,0m49.915,1.891a1.083,1.083,0,0,1-.424-.952,1.152,1.152,0,0,1,.555-.938,1.011,1.011,0,0,1,1.132.031,1.118,1.118,0,0,1,.507,1.132,1.1,1.1,0,0,1-.69.887,1.035,1.035,0,0,1-.424.093,1,1,0,0,1-.659-.252" transform="translate(-12.457)" fill="url(#linear-gradient)"/>
</svg>
