<svg xmlns="http://www.w3.org/2000/svg" xmlns:xlink="http://www.w3.org/1999/xlink" width="64.958" height="75" viewBox="0 0 64.958 75">
  <defs>
    <linearGradient id="linear-gradient" x1="0.5" x2="0.5" y2="1" gradientUnits="objectBoundingBox">
      <stop offset="0" stop-color="#b0bec5"/>
      <stop offset="1" stop-color="#78909c"/>
    </linearGradient>
  </defs>
  <path id="Логотипы_партнеров_Logo_IOST" d="M45.869,0,13.39,18.75v37.5L45.869,75,78.348,56.25V18.75Zm.664,60.75L21.606,46.523l.1-6.915,24.81,14.2,11.966-6.9-8.025-4.635-3,1.733-5.625-3.233,3-1.748L40.9,36.75l-2.381,1.384L32.9,34.9l2.4-1.384-12.735-7.35L46.518,12.341l22.6,12.889-6.064,3.521-16.538-9.48-11.966,6.9,6.7,3.87,3.424-1.991L50.3,31.279l-3.45,1.991,3.938,2.28,2.8-1.631,5.644,3.236L56.4,38.8l14.029,8.1Z" transform="translate(-13.39)" fill="url(#linear-gradient)"/>
</svg>
