<svg xmlns="http://www.w3.org/2000/svg" xmlns:xlink="http://www.w3.org/1999/xlink" width="68.997" height="68.565" viewBox="0 0 68.997 68.565">
  <defs>
    <linearGradient id="linear-gradient" x1="0.5" x2="0.5" y2="1" gradientUnits="objectBoundingBox">
      <stop offset="0" stop-color="#b0bec5"/>
      <stop offset="1" stop-color="#78909c"/>
    </linearGradient>
  </defs>
  <path id="Логотипы_партнеров_Logo_ORBS" d="M31.719.63c1.2.083,2.415.183,3.6.245,2.008.1,4.019.176,6.027.276a6.144,6.144,0,0,1,.907.2,4.247,4.247,0,0,1-.59.535c-1.076.6-2.149,1.2-3.253,1.742a2.7,2.7,0,0,1-2.391.021c-1.573-.752-3.1-1.563-4.664-2.36-.29-.148-.649-.324-.131-.655Zm-.3,44.912c2.839-.293,5.682-.58,8.518-.9.314-.035.794-.217.856-.428a1.256,1.256,0,0,0-.314-.969q-6.614-7.731-13.276-15.422a1.142,1.142,0,0,0-.856-.421c-.241.062-.486.473-.562.773q-2.2,8.432-4.357,16.871c-.252.983.145,1.452,1.159,1.38Q27.007,45.994,31.423,45.542Zm15.235-22a10.835,10.835,0,0,0-1.1.1L32.789,24.959c-1.287.135-2.577.248-3.864.4-.88.1-1.069.621-.517,1.314.066.079.135.155.2.231L41.745,42.158a2.353,2.353,0,0,0,.345.345.6.6,0,0,0,1-.245,3.1,3.1,0,0,0,.2-.58q1.863-7.245,3.723-14.49c.224-.876.442-1.749.631-2.5C47.662,23.907,47.306,23.528,46.658,23.545Zm-17.636.145,12.941-1.342c1.411-.145,2.822-.286,4.23-.459.773-.1,1-.6.611-1.28a3.347,3.347,0,0,0-.235-.345L38.257,8.154c-.638-.928-1.249-.9-1.822.076q-2.084,3.567-4.168,7.131T28.1,22.493c-.438.752-.217,1.218.552,1.221Zm7.59,22.991q-6.81.7-13.617,1.38c-.98.1-1.235.669-.69,1.487q4.254,6.21,8.521,12.4c.531.769,1.17.762,1.639-.035q4.244-7.224,8.452-14.473a1.035,1.035,0,0,0,.093-.852c-.107-.207-.49-.266-.607-.321ZM23.35,26.726a3.037,3.037,0,0,0-.407.148L7.725,32.96c-1.035.417-1.145,1.007-.314,1.784q5.4,5.054,10.816,10.105c.814.759,1.38.6,1.653-.49q1.791-6.917,3.581-13.841c.269-1.035.531-2.07.759-2.957C24.222,26.822,23.919,26.577,23.35,26.726Zm38.24,8.532q-5.4-5.061-10.826-10.1-1.221-1.139-1.642.493Q47.4,32.36,45.671,39.077c-.262,1.014-.545,2.022-.762,3.046-.069.345-.093.825.1,1.011s.655.028,1,0a.845.845,0,0,0,.231-.083l7.952-3.174,7.1-2.839c.431-.173.856-.345.828-1.125A4.213,4.213,0,0,0,61.589,35.258ZM34.079,6.726,16.415,10.452c-1.135.241-1.3.766-.531,1.663q4.3,5.006,8.625,10.005c.783.907,1.411.842,2.011-.183L34.655,8a2.636,2.636,0,0,0,.293-.6c.128-.469-.076-.69-.6-.69A.754.754,0,0,0,34.079,6.726ZM53.13,57.914q-4.275-4.982-8.57-9.953c-.862-1-1.449-.945-2.122.2q-4.026,6.9-8.038,13.8a4.523,4.523,0,0,0-.311,1.183,4.875,4.875,0,0,0,1.221.052c3.685-.752,7.359-1.535,11.04-2.308l6.393-1.349a.894.894,0,0,0,.845-.894A4.882,4.882,0,0,0,53.13,57.914ZM23.308,23.29q-4.371-5.106-8.77-10.195c-.652-.756-1.249-.652-1.6.283Q9.791,21.834,6.655,30.3a3.1,3.1,0,0,0-.031.935,3.16,3.16,0,0,0,.966-.028c1.518-.573,3.015-1.194,4.523-1.8l10.7-4.275a1.164,1.164,0,0,0,.9-1.149A3.629,3.629,0,0,0,23.308,23.29ZM61.331,38.815q-7.59,3.022-15.156,6.055c-1.011.4-1.159,1.056-.438,1.9s1.446,1.687,2.17,2.529q3.26,3.795,6.527,7.566c.714.825,1.256.711,1.653-.3.031-.079.062-.155.09-.231q3.064-8.225,6.124-16.45a1.58,1.58,0,0,0,.162-.711,1.832,1.832,0,0,0-.345-.611c-.362.121-.58.176-.787.259Zm1.494-5.972Q61.313,24.5,59.8,16.162c-.193-1.035-.735-1.218-1.539-.524q-3.3,2.836-6.593,5.679c-.956.811-.956,1.521-.055,2.363l7.352,6.862c1.035.966,2.07,1.939,3.122,2.888a.894.894,0,0,0,.6.186c.076,0,.141-.29.179-.373C62.845,33.043,62.842,32.939,62.825,32.843ZM50.5,20.119q3.322-2.836,6.641-5.713c.859-.749.749-1.3-.321-1.663L46.672,9.293c-1.984-.69-3.968-1.349-5.958-2a2.015,2.015,0,0,0-.69.034,2.384,2.384,0,0,0,.148.69c.21.376.48.718.725,1.073q3.667,5.341,7.331,10.695A1.784,1.784,0,0,0,49.5,20.7,5.282,5.282,0,0,0,50.5,20.119ZM18.582,49.82c-.58.459-1.128.959-1.687,1.442-1.725,1.477-3.45,2.946-5.141,4.433-.711.621-.593,1.173.283,1.508l.29.107,5.658,1.922q5.077,1.723,10.15,3.45a2.97,2.97,0,0,0,.825.031,2.032,2.032,0,0,0-.159-.731q-4.081-6-8.208-11.958a4.239,4.239,0,0,0-1.011-.752A7.121,7.121,0,0,0,18.582,49.82ZM17.2,46.153Q13.11,42.32,9,38.49c-.69-.631-1.345-1.273-2.039-1.88a2.094,2.094,0,0,0-.645-.248c-.052.231-.11.455-.145.69a.959.959,0,0,0,.048.3l.559,3.1Q8,47.191,9.222,53.915c.176.945.749,1.135,1.48.507q3.415-2.936,6.814-5.889a4.161,4.161,0,0,0,.614-.938A2.157,2.157,0,0,0,17.2,46.153Zm0-37.667c.345-.038.69-.048,1.035-.121q6.634-1.4,13.262-2.777c.624-.131,1.252-.238,1.866-.4.21-.055.379-.266.569-.4-.138-.169-.266-.345-.411-.5a.69.69,0,0,0-.214-.124c-1.829-.928-3.66-1.863-5.492-2.788a2.374,2.374,0,0,0-2.76.293c-2.453,1.987-4.9,4-7.355,6a6.82,6.82,0,0,1-.728.459Zm-6.558,5.382a3.684,3.684,0,0,0-.514.321q-3.678,3.326-7.349,6.669a2.167,2.167,0,0,0-.607,2.374c.656,2.049,1.342,4.092,2.039,6.131.076.221.314.386.476.576.169-.183.417-.345.5-.552q2.76-7.373,5.52-14.769a3.34,3.34,0,0,0,.11-.69ZM51.791,61.529a4.883,4.883,0,0,0-.638.035c-.507.093-1.007.207-1.508.314q-6.931,1.459-13.859,2.932a2.76,2.76,0,0,0-.69.4c.179.2.321.48.545.6q2.812,1.463,5.651,2.874a2.27,2.27,0,0,0,2.6-.279q3.736-3.029,7.449-6.089a7.112,7.112,0,0,0,.566-.593Zm6.531-5.379a5.783,5.783,0,0,0,.69-.466c2.363-2.132,4.716-4.278,7.083-6.41a2.045,2.045,0,0,0,.787-2.07c-.69-2.3-1.459-4.571-2.236-6.841-.141-.417-.48-.39-.728,0a2,2,0,0,0-.179.39q-2.691,7.269-5.389,14.514a6.4,6.4,0,0,0-.179.738ZM7.128,52.2a4.861,4.861,0,0,0-.031-.635Q5.772,44.228,4.426,36.91a2.957,2.957,0,0,0-.459-.8,3.036,3.036,0,0,0-.769.531c-.849,1.083-1.659,2.2-2.477,3.305a2.194,2.194,0,0,0-.093,2.739q2.9,4.485,5.824,9c.141.214.321.4.483.6ZM61.872,17.825a5.711,5.711,0,0,0,.038.6q1.325,7.369,2.67,14.732c.048.262.269.649.466.69s.555-.207.725-.424c.887-1.132,1.749-2.287,2.588-3.45a2.108,2.108,0,0,0,.076-2.539q-2.967-4.623-5.965-9.212a4.168,4.168,0,0,0-.417-.476ZM13.334,59.687a5.23,5.23,0,0,0,.466.531q4.061,3.6,8.132,7.183a2.184,2.184,0,0,0,2.625.307c.787-.407,1.559-.828,2.339-1.245.507-.273,1.035-.518,1.511-.828.2-.128.473-.417.438-.58-.045-.221-.345-.39-.549-.569-.055-.052-.152-.052-.231-.079q-6.935-2.36-13.869-4.716a7.686,7.686,0,0,0-.752-.172ZM55.666,10.3a5.354,5.354,0,0,0-.466-.531Q51.129,6.174,47.061,2.59a2.156,2.156,0,0,0-2.556-.321C43.249,2.931,42,3.59,40.765,4.287a3.07,3.07,0,0,0-.628.69c.238.2.445.486.721.58q6.983,2.415,13.983,4.758a6.611,6.611,0,0,0,.742.169ZM26.91,68.774c3.705.262,7.414.4,11.154.421a1.314,1.314,0,0,0-.524-.524q-2.156-1.118-4.33-2.215a2.915,2.915,0,0,0-2.622-.083c-1.111.524-2.177,1.149-3.257,1.725a3.363,3.363,0,0,0-.455.379ZM1.114,26.429c-.066.493-.141.987-.193,1.48Q.455,32.356,0,36.8a4.485,4.485,0,0,0,.117.876,3.767,3.767,0,0,0,.518-.435c.783-1.035,1.587-2.046,2.311-3.1a2.677,2.677,0,0,0,.286-2.37c-.5-1.584-1.035-3.157-1.556-4.733a4.806,4.806,0,0,0-.3-.631ZM67.841,43.6c.062-.286.141-.569.176-.856.114-1.018.214-2.039.321-3.06.224-2.184.452-4.368.659-6.555a2.07,2.07,0,0,0-.141-.624,1.984,1.984,0,0,0-.576.366c-.721.921-1.428,1.853-2.108,2.8a2.826,2.826,0,0,0-.393,2.584c.5,1.584,1.035,3.157,1.566,4.73a5.044,5.044,0,0,0,.321.621ZM61.71,55.464c-1.349,1.256-2.7,2.5-4.036,3.771a1.284,1.284,0,0,0-.3.662c-.1.476.217.745.638.517a2.977,2.977,0,0,0,.866-.756c.614-.773,1.183-1.577,1.77-2.37l1.225-1.666ZM14.038,62.216c-1.235-1.335-2.463-2.677-3.712-4a1.325,1.325,0,0,0-.649-.321c-.173-.038-.473,0-.542.107a.69.69,0,0,0,0,.6,2.926,2.926,0,0,0,.69.766c.973.749,1.97,1.47,2.957,2.2.373.273.749.538,1.121.807ZM64.577,18.7a1.235,1.235,0,0,0-.076-.279c-.8-1.5-1.587-3.008-2.415-4.485-.214-.386-.562-.894-1.035-.621-.531.3-.259.89,0,1.245,1.094,1.428,2.239,2.819,3.364,4.223ZM18.182,4.918a3.643,3.643,0,0,0-.383.145L13.572,7.313a1.1,1.1,0,0,0-.438.328,6.21,6.21,0,0,0-.345.838c.321.038.69.2.949.093A4.83,4.83,0,0,0,14.9,7.8c1.128-.907,2.246-1.832,3.367-2.76ZM4.426,51.328a1.125,1.125,0,0,0,.059.224c.8,1.5,1.6,3,2.415,4.485a1.173,1.173,0,0,0,.39.466,1.056,1.056,0,0,0,.69.176c.117-.031.231-.428.183-.621a2.819,2.819,0,0,0-.466-.98c-.5-.669-1.052-1.308-1.584-1.956L4.557,51.238ZM7.245,14.5c.273-.231.549-.455.811-.69,1.076-.98,2.16-1.949,3.2-2.964.317-.307.631-.838.231-1.2s-.863.052-1.128.4c-1.1,1.425-2.17,2.877-3.25,4.319ZM50.777,65.083a1.2,1.2,0,0,0,.276-.069c1.5-.8,3.012-1.594,4.506-2.415a1.7,1.7,0,0,0,.573-.545.621.621,0,0,0,.048-.552.59.59,0,0,0-.524-.2,3.926,3.926,0,0,0-1.145.559c-.99.766-1.949,1.577-2.915,2.374-.3.242-.583.5-.873.745ZM55.048,7.73a.718.718,0,0,0,.083.2c1.114,1.235,2.222,2.477,3.357,3.695a1.891,1.891,0,0,0,.776.469c.183.062.538.021.607-.1a.749.749,0,0,0-.031-.662,3.522,3.522,0,0,0-.773-.78c-1.063-.811-2.139-1.6-3.215-2.394-.238-.176-.483-.345-.725-.511Z" transform="translate(0 -0.63)" fill="url(#linear-gradient)"/>
</svg>
