<svg xmlns="http://www.w3.org/2000/svg" xmlns:xlink="http://www.w3.org/1999/xlink" width="51.13" height="69.353" viewBox="0 0 51.13 69.353">
  <defs>
    <linearGradient id="linear-gradient" x1="0.5" x2="0.5" y2="1" gradientUnits="objectBoundingBox">
      <stop offset="0" stop-color="#b0bec5"/>
      <stop offset="1" stop-color="#78909c"/>
    </linearGradient>
  </defs>
  <path id="Логотипы_партнеров_Logo_Tezos" data-name="Логотипы партнеров_Logo_Tezos" d="M64.521,70.177A13.718,13.718,0,0,1,58,76.7a21.214,21.214,0,0,1-9.426,2.1c-4.988,0-8.62-1.166-10.906-3.575a10.919,10.919,0,0,1-3.386-7.7,4.652,4.652,0,0,1,.621-2.527,3.969,3.969,0,0,1,1.6-1.6,5.287,5.287,0,0,1,2.532-.616,4.661,4.661,0,0,1,2.527.616,4.011,4.011,0,0,1,1.6,1.6,5.278,5.278,0,0,1,.616,2.527,4.775,4.775,0,0,1-.868,2.954,4.192,4.192,0,0,1-2.1,1.536,6.06,6.06,0,0,0,3.262,2.034,15.529,15.529,0,0,0,4.438.621,9.564,9.564,0,0,0,9.308-6.605,21.025,21.025,0,0,0,1.166-7.392,20.2,20.2,0,0,0-1.266-7.62,9.26,9.26,0,0,0-3.76-4.742,9.92,9.92,0,0,0-5.42-1.536,10.461,10.461,0,0,0-4.742,1.6l-3.49,1.674V48.318l15.7-20.939H34.288V49.12a7.724,7.724,0,0,0,1.152,4.438,4.124,4.124,0,0,0,3.632,1.726,6,6,0,0,0,3.632-1.29,14.5,14.5,0,0,0,3.016-3.077,1.129,1.129,0,0,1,.37-.474.82.82,0,0,1,.5-.19,1.778,1.778,0,0,1,1.043.436,2.186,2.186,0,0,1,.555,1.475c0,.247-.123.621-.185,1.1a10,10,0,0,1-3.694,4.614,9.384,9.384,0,0,1-5.216,1.6c-4.742,0-7.947-.915-9.8-2.764a10.15,10.15,0,0,1-2.7-7.516V27.389H15.525V23.311H26.649V14.074l-2.532-2.532v-2.1h7.392l2.764,1.422v12.38l28.758-.062,2.845,2.845L48.242,43.7a11.968,11.968,0,0,1,3.319-.806,14.076,14.076,0,0,1,6.4,1.849,13.03,13.03,0,0,1,5.543,4.922,18.317,18.317,0,0,1,2.532,5.979,27.279,27.279,0,0,1,.616,5.107A21.262,21.262,0,0,1,64.521,70.177Z" transform="translate(-15.525 -9.446)" fill="url(#linear-gradient)"/>
</svg>
