<svg xmlns="http://www.w3.org/2000/svg" width="30" height="27.994" viewBox="0 0 30 27.994">
  <path id="Path_31" data-name="Path 31" d="M209.473,10.819a3.354,3.354,0,0,0-2.178.943,15.852,15.852,0,0,0-8.76-2.915c.5-2.479.994-4.9,1.491-7.335.185.03.312.048.439.079,1.329.3,2.658.6,4,.877a.572.572,0,0,1,.52.538,2.327,2.327,0,0,0,2.456,1.9,2.367,2.367,0,0,0,1.988-1.542A2.49,2.49,0,0,0,208.1.189a2.255,2.255,0,0,0-2.785.925.388.388,0,0,1-.5.206c-1.6-.369-3.207-.72-4.807-1.07C199.257.08,199.09.2,198.928,1c-.5,2.5-1.017,5.007-1.508,7.51-.052.278-.173.357-.433.381-.948.1-1.9.181-2.831.363a14.274,14.274,0,0,0-5.715,2.5l-.179-.145a3.906,3.906,0,0,0-.514-.375,3.194,3.194,0,0,0-4.449,1.33,3.5,3.5,0,0,0,1.271,4.656.456.456,0,0,1,.22.52,7.381,7.381,0,0,0,1.416,5.043,10.832,10.832,0,0,0,3.912,3.344,16.764,16.764,0,0,0,10.822,1.59,13.724,13.724,0,0,0,7.315-3.435,7.737,7.737,0,0,0,2.722-6.567c-.023-.3.1-.393.306-.526h0a3.457,3.457,0,0,0,1.6-3.072A3.358,3.358,0,0,0,209.473,10.819Zm-19.108,5.854a2.343,2.343,0,1,1,2.334,2.455A2.4,2.4,0,0,1,190.365,16.673ZM203.4,23.2a5.141,5.141,0,0,1-2.121,1.252,11.283,11.283,0,0,1-3.588.532,9.941,9.941,0,0,1-3.981-.841,7.534,7.534,0,0,1-1.381-.961.648.648,0,0,1-.075-.847.573.573,0,0,1,.832-.109,6.4,6.4,0,0,0,4.166,1.451,8.2,8.2,0,0,0,4.68-.925,6.259,6.259,0,0,0,.67-.514h0l.017-.018a.559.559,0,0,1,.815.06l.017.018A.648.648,0,0,1,203.4,23.2Zm-.41-4.064a2.452,2.452,0,1,1,2.357-2.431A2.4,2.4,0,0,1,202.99,19.14Z" transform="translate(-182.885 -0.018)" fill="#90a4ae"/>
</svg>
