<svg xmlns="http://www.w3.org/2000/svg" width="26.971" height="31.574" viewBox="0 0 26.971 31.574">
  <path id="Path_26" data-name="Path 26" d="M379.718,35.444a1.08,1.08,0,0,0,.333-.8c0-.054-.006-.538-.011-1.451s-.012-1.711-.012-2.395l-.586.109a7.448,7.448,0,0,1-1.42.1,10.3,10.3,0,0,1-1.777-.187,3.9,3.9,0,0,1-1.713-.8,3.4,3.4,0,0,1-1.127-1.657l-.259-.617a6.622,6.622,0,0,0-.8-1.373,3.135,3.135,0,0,0-1.115-1.022l-.178-.133a1.9,1.9,0,0,1-.333-.32,1.665,1.665,0,0,1-.23-.375.227.227,0,0,1,.126-.308,1.642,1.642,0,0,1,.742-.121l.512.079a3.676,3.676,0,0,1,1.265.647,4.291,4.291,0,0,1,1.242,1.4,4.68,4.68,0,0,0,1.42,1.681,2.916,2.916,0,0,0,1.673.581,6.985,6.985,0,0,0,1.46-.133,4.934,4.934,0,0,0,1.15-.405,4.45,4.45,0,0,1,1.253-2.77,16.834,16.834,0,0,1-2.622-.484,9.944,9.944,0,0,1-2.4-1.052,6.968,6.968,0,0,1-2.058-1.8A8.721,8.721,0,0,1,372.9,19a14.016,14.016,0,0,1-.523-4.033A8.086,8.086,0,0,1,374.4,9.424a7.587,7.587,0,0,1,.178-5.485,3.444,3.444,0,0,1,2.2.363,15.564,15.564,0,0,1,2.133,1.034q.681.426,1.087.726a17.608,17.608,0,0,1,9.82,0l.972-.647a13.513,13.513,0,0,1,2.352-1.185,3.234,3.234,0,0,1,2.07-.3,7.5,7.5,0,0,1,.2,5.485,8.053,8.053,0,0,1,2.018,5.539A14.124,14.124,0,0,1,396.908,19a8.473,8.473,0,0,1-1.357,2.824,7.222,7.222,0,0,1-2.07,1.79,10.441,10.441,0,0,1-2.4,1.052,16.836,16.836,0,0,1-2.622.484,4.931,4.931,0,0,1,1.328,3.822v5.672a1.092,1.092,0,0,0,.322.8Z" transform="translate(-370.462 -3.876)" fill="#90a4ae"/>
</svg>
