<svg xmlns="http://www.w3.org/2000/svg" width="223" height="63" viewBox="0 0 223 63">
  <g id="Group_66" data-name="Group 66" transform="translate(-24 -159)">
    <g id="Group_65" data-name="Group 65" transform="translate(-321 -30)">
      <text id="In_Chaos_lies_the_Truth" data-name="In Chaos  lies the Truth" transform="translate(395 233)" fill="#607d8b" font-size="15" font-family="Montserrat-Regular, Montserrat"><tspan x="0" y="15" xml:space="preserve">In Chaos  lies the Truth</tspan></text>
      <g id="Group_20" data-name="Group 20" transform="translate(345 189)">
        <path id="Path_3" data-name="Path 3" d="M805.877,372.08q0-13.451-.006-26.9a.419.419,0,0,1,.311-.474c1.839-.717,3.673-1.451,5.506-2.187a.413.413,0,0,1,.425.047q8.709,5.546,17.423,11.085,5.829,3.707,11.66,7.411a.475.475,0,0,1,.241.381A25.13,25.13,0,0,1,841.6,365c0,.858,0,1.716-.014,2.574A39.285,39.285,0,0,1,839.724,379a34.438,34.438,0,0,1-6.429,11.676,32.827,32.827,0,0,1-10.434,8.25,37.148,37.148,0,0,1-10.88,3.482.681.681,0,0,1-.463-.067q-2.7-1.452-5.416-2.887a.372.372,0,0,1-.228-.389Q805.879,385.573,805.877,372.08Zm5.3.194V354.359c.121.066.218.116.313.171q6.832,3.943,13.663,7.891a.308.308,0,0,0,.361,0c.575-.341,1.156-.67,1.734-1l1.433-.829-21.437-14.012v48.856c0,.956,0,1.913,0,2.869a.283.283,0,0,0,.169.3c1.182.622,2.359,1.253,3.539,1.881.059.032.122.056.216.1v-.281q0-5.4-.008-10.8,0-6.193-.006-12.386a.364.364,0,0,1,.228-.371q4.335-2.337,8.664-4.686l19.141-10.366c.064-.035.126-.074.214-.126-.091-.062-.152-.106-.216-.147l-7.333-4.665q-9.959-6.334-19.918-12.669a.337.337,0,0,0-.348-.034c-1.122.452-2.247.9-3.371,1.341-.042.017-.083.039-.163.078l23.251,15.2Zm1.351,28.64c.068-.01.1-.012.135-.02,1.365-.332,2.749-.6,4.093-1.006a31.991,31.991,0,0,0,19.611-16.324,35.864,35.864,0,0,0,3.7-13.195c.2-2.288.158-4.58.151-6.873,0-.255-.024-.511-.038-.789-.087.042-.138.065-.187.092l-8.865,4.8q-9.172,4.967-18.345,9.929a.435.435,0,0,0-.273.447q.015,10.435.014,20.869v2.069Zm.012-44.194v13.167c.054-.025.092-.039.127-.059,1.024-.589,2.047-1.181,3.072-1.765a.269.269,0,0,0,.134-.28q0-4.462,0-8.924a.325.325,0,0,0-.2-.329c-.418-.23-.828-.477-1.242-.715Zm11.418,6.592-6.707-3.873v7.744Z" transform="translate(-805.871 -342.48)" fill="#78909c"/>
        <path id="Path_4" data-name="Path 4" d="M842.331,387.067c.648,11.988-7.97,23.362-19.548,25.757,0-.078-.01-.151-.01-.225q0-7.363-.005-14.726a.364.364,0,0,1,.226-.372q9.569-5.159,19.132-10.327C842.187,387.141,842.249,387.109,842.331,387.067Zm-18.182,23.978c9.5-2.671,16.465-12.08,16.786-21.656a1.32,1.32,0,0,0-.135.056c-1.175.635-2.348,1.272-3.527,1.9a.353.353,0,0,0-.185.3,23.291,23.291,0,0,1-.93,3.76,17.88,17.88,0,0,1-4.3,7.048,17.228,17.228,0,0,1-6.141,3.917c-.518.195-1.046.364-1.573.547Zm-.01-5.565a16.1,16.1,0,0,0,7.616-4.948,17.988,17.988,0,0,0,3.821-8.253c-.095.046-.151.072-.205.1q-5.509,2.975-11.02,5.947a.348.348,0,0,0-.216.356q.01,3.269,0,6.538Z" transform="translate(-812.507 -359.99)" fill="#78909c"/>
      </g>
      <text id="Paradigm" transform="translate(395 225.372)" fill="#546e7a" font-size="25" font-family="SegoeUI, Segoe UI" letter-spacing="0.04em"><tspan x="0" y="0">PARADIGM</tspan></text>
    </g>
  </g>
</svg>
