<svg xmlns="http://www.w3.org/2000/svg" width="26.003" height="21.529" viewBox="0 0 26.003 21.529">
  <path id="Path_24" data-name="Path 24" d="M23.524,22.667a1.911,1.911,0,0,0,.626,1.554c.608.574,1.165,1.215,1.739,1.826l-.172.23H15.478a4.222,4.222,0,0,1,.666-.9c1.567-1.137,1.928-2.691,1.836-4.626-.143-3.108-.04-6.235-.207-9.4-.557,1.475-1.119,2.945-1.67,4.426-1.222,3.265-2.433,6.537-3.673,9.79a3.025,3.025,0,0,1-.6.738c-.247-.23-.6-.411-.723-.7C9.016,20.865,6.95,16.1,4.792,11.135c-.046.405-.086.611-.086.816-.006,3.072-.023,6.144.011,9.216a2.486,2.486,0,0,0,.448,1.282c.712,1,1.5,1.947,2.244,2.921.189.284.362.587.522.889H0a5.574,5.574,0,0,1,.442-.895c.626-.847,1.245-1.705,1.94-2.485a3.115,3.115,0,0,0,.763-2.268c-.04-3.646.006-7.293-.046-10.933a3.384,3.384,0,0,0-.591-1.669C1.986,7.2,1.326,6.485.746,5.717a6.278,6.278,0,0,1-.465-.9H1.544c1.842,0,3.684.03,5.521-.018a1.1,1.1,0,0,1,1.182.828c1.653,3.912,3.357,7.807,5.039,11.7.08.187.178.369.339.7.631-1.639,1.217-3.151,1.791-4.668.987-2.594,1.98-5.188,2.944-7.795A.953.953,0,0,1,19.4,4.785c1.894.048,3.793.018,5.693.018.218,0,.436.036.912.073a5.765,5.765,0,0,1-.838,1.01c-1.395.986-1.716,2.322-1.67,4.052C23.621,14.189,23.553,18.428,23.524,22.667Z" transform="translate(0 -4.778)" fill="#90a4ae"/>
</svg>
