<svg xmlns="http://www.w3.org/2000/svg" width="24.522" height="23.173" viewBox="0 0 24.522 23.173">
  <path id="Path_25" data-name="Path 25" d="M302.843,6.069a1.022,1.022,0,0,0-.24-.6.536.536,0,0,1-.052-.06.924.924,0,0,0-.624-.29h-.114a1,1,0,0,0-.32.079l-22.559,9.488a1,1,0,0,0-.543.581,1.044,1.044,0,0,0,.555,1.33l5.933,2.395,1.659,6.652a1.016,1.016,0,0,0,.149.333.938.938,0,0,0,1.356.236l3.307-2.516,6.168,4.42a.884.884,0,0,0,.36.157.974.974,0,0,0,1.139-.816l3.81-21.116c.006-.036.011-.079.017-.115A1.428,1.428,0,0,0,302.843,6.069ZM286.629,17.964a1,1,0,0,0-.589-.7l-4.074-1.645,15.671-6.591L287.436,19.4a1.046,1.046,0,0,0-.292.635Zm1.43,5.714-.732-2.945h0a1.123,1.123,0,0,0,.246.254l2.077,1.488Zm9.326,1.869-5.492-3.937-.023-.018L289.65,20l10.7-10.885Z" transform="translate(-278.324 -5.12)" fill="#90a4ae"/>
</svg>
