<svg xmlns="http://www.w3.org/2000/svg" width="27.339" height="23.423" viewBox="0 0 27.339 23.423">
  <path id="Path_30" d="M120.659,7.8h-.006c-.092.145-.178.29-.276.423a11.625,11.625,0,0,1-2.388,2.51.185.185,0,0,0-.092.163,14.954,14.954,0,0,1-.058,2.092c-.029.26-.035.526-.075.786-.063.441-.138.883-.224,1.318a17.506,17.506,0,0,1-1.674,4.7A15.951,15.951,0,0,1,109.3,26.6a14.487,14.487,0,0,1-2.974,1.2,14.038,14.038,0,0,1-2.388.472c-.368.036-.731.1-1.1.1a16.646,16.646,0,0,1-2.854-.1c-.4-.067-.805-.121-1.208-.206a14.838,14.838,0,0,1-3.02-.968A16.3,16.3,0,0,1,93.32,25.77l.058-.018.063.006.455.042h.063c.138.006.27.024.408.024.3,0,.6-.012.9-.024h.063l.478-.042h.063l.564-.091H96.5l.063-.018.092-.018.8-.181.069-.018.322-.1.115-.03.472-.169.063-.024.719-.3.132-.067.65-.345.115-.067.058-.03.092-.054.058-.036.046-.03.063-.036.046-.03.3-.2.178-.127.173-.127.046-.036.1-.079.046-.036.04-.03.046-.036.155-.121-.011-.024h-.322l-.086-.018-.518-.079-.069-.012-.2-.054-.069-.018-.173-.054-.069-.012-.673-.272-.109-.054-.322-.175-.2-.127-.058-.036-.046-.036-.04-.024-.109-.079-.086-.067-.132-.1-.178-.151-.046-.042-.1-.091-.1-.091-.219-.224-.1-.115-.1-.121-.052-.067-.029-.042-.058-.073-.029-.042-.035-.048-.029-.042-.035-.048-.075-.109-.121-.187-.167-.29-.081-.145L96.6,19.9l-.04-.091-.035-.091-.029-.067-.058-.163-.023-.067-.04-.175,1.191.06h.063a4.226,4.226,0,0,0,1.133-.175l.058-.018V19.1l-.058-.012-.282-.073L98.412,19l-.391-.139-.069-.024-.04-.018-.063-.03-.541-.266-.092-.06-.1-.06-.046-.03-.627-.466-.046-.042-.063-.054-.092-.085-.431-.454-.063-.079-.7-1.064-.04-.079-.023-.06-.121-.254-.035-.091-.029-.067-.058-.163-.023-.067L94.609,15l-.017-.073L94.5,14.54l-.011-.073a.023.023,0,0,0-.006-.018c-.006-.03-.012-.067-.017-.1l-.029-.2-.017-.067c-.017-.278-.035-.556-.052-.859l.46.224.063.03.086.042.063.024.109.048.063.024.414.139.242.06.282.06.04.012.236.03.069.006.38.048.012-.036-.213-.157-.046-.036-.759-.732-.086-.1-.046-.06-.063-.079-.023-.036-.035-.048-.19-.272-.161-.254c0-.006-.006-.012-.006-.018L95.23,12.1l-.023-.042-.063-.121-.052-.109-.144-.3-.1-.254-.029-.067-.15-.46-.023-.079-.138-.635-.012-.073L94.459,9.7l-.017-.067c0-.079,0-.151-.006-.23V8.669c.023-.23.052-.454.075-.683.006-.024.006-.048.011-.073l.069-.339.017-.073.173-.568.029-.073.017-.042.029-.067.236-.52.04-.079.063-.073.086.1.04.048.351.429.109.121.173.2.15.169.345.363.2.206.167.163.121.109.1.1.069.06.478.417.046.042.173.139.046.036,1.473,1.064.046.03.063.036.046.03a.021.021,0,0,0,.017.006l.092.06.253.145.1.06.184.1.161.091.391.206.086.042.391.181.109.054.092.036.063.03.656.266.063.024.3.115.2.067.3.1.115.03.65.187.155.036.127.03.069.012.8.169.069.012.19.036.069.012.236.036.069.018a.273.273,0,0,0,.04.018c.282.03.564.067.846.091.132.012.265,0,.408,0-.029-.187-.063-.381-.1-.568l-.017-.067c-.006-.157-.017-.308-.023-.466a6.2,6.2,0,0,1,.075-1.222l-.006-.067c.069-.272.132-.544.2-.822l.017-.048.132-.363.029-.067.058-.139.132-.278.506-.822.035-.048.138-.175.058-.073.109-.127.288-.3.144-.139.046-.042.173-.145.046-.036.782-.532.3-.163L110,5.47l.063-.03.328-.133.132-.048.846-.212.524-.067h.759c.023.006.046.018.069.024.23.036.466.054.7.109a5.458,5.458,0,0,1,2.871,1.657.173.173,0,0,0,.178.06A10.917,10.917,0,0,0,119.8,5.494c.035-.018.063-.036.1-.054l.017.024a5.946,5.946,0,0,1-2.411,3.2c.023.012.029.018.04.018l.639-.109a10.879,10.879,0,0,0,2.209-.671c.081-.036.167-.06.253-.091.006,0,.006-.006.011-.006Z" transform="translate(-93.32 -4.98)" fill="#90a4ae"/>
</svg>
