<svg xmlns="http://www.w3.org/2000/svg" width="220.04" height="59.942" viewBox="0 0 220.04 59.942">
  <g id="Group_85" transform="translate(-345 -189)">
    <path id="Path_41" d="M1.71,4.5H2.82V15H1.71Zm8.325,2.55a3.224,3.224,0,0,1,2.363.862,3.369,3.369,0,0,1,.877,2.512V15H12.21V10.53a2.615,2.615,0,0,0-.615-1.875A2.31,2.31,0,0,0,9.84,8.01a2.7,2.7,0,0,0-2.018.757A2.861,2.861,0,0,0,7.08,10.86V15H6.015V7.11h1.02V8.565A2.963,2.963,0,0,1,8.243,7.447,3.865,3.865,0,0,1,10.035,7.05Zm14.85,8.04a5.731,5.731,0,0,1-2.812-.69,5.053,5.053,0,0,1-1.965-1.912A5.336,5.336,0,0,1,19.4,9.75a5.336,5.336,0,0,1,.712-2.738A5.039,5.039,0,0,1,22.08,5.1a5.773,5.773,0,0,1,2.82-.69,5.842,5.842,0,0,1,2.16.39,4.477,4.477,0,0,1,1.68,1.14l-.7.7A4.182,4.182,0,0,0,24.93,5.4a4.563,4.563,0,0,0-2.265.57,4.165,4.165,0,0,0-1.6,1.56,4.324,4.324,0,0,0-.577,2.22,4.324,4.324,0,0,0,.577,2.22,4.165,4.165,0,0,0,1.6,1.56,4.563,4.563,0,0,0,2.265.57,4.126,4.126,0,0,0,3.1-1.26l.7.7a4.541,4.541,0,0,1-1.687,1.148A5.8,5.8,0,0,1,24.885,15.09ZM34.9,7.05a3.224,3.224,0,0,1,2.363.862,3.369,3.369,0,0,1,.877,2.512V15H37.08V10.53a2.615,2.615,0,0,0-.615-1.875A2.31,2.31,0,0,0,34.71,8.01a2.7,2.7,0,0,0-2.017.757,2.861,2.861,0,0,0-.743,2.092V15H30.885V3.87H31.95V8.49a2.887,2.887,0,0,1,1.2-1.065A3.938,3.938,0,0,1,34.9,7.05Zm8.9,0a3.34,3.34,0,0,1,2.37.773A2.985,2.985,0,0,1,47,10.11V15h-1.02V13.77a2.442,2.442,0,0,1-1.058.96,3.7,3.7,0,0,1-1.657.345,3.246,3.246,0,0,1-2.1-.63,2.034,2.034,0,0,1-.78-1.665,2.017,2.017,0,0,1,.728-1.62,3.56,3.56,0,0,1,2.317-.615H45.93v-.48a2.022,2.022,0,0,0-.57-1.553,2.354,2.354,0,0,0-1.665-.532,4.233,4.233,0,0,0-1.44.247,3.629,3.629,0,0,0-1.185.683l-.48-.8a4.256,4.256,0,0,1,1.44-.787A5.606,5.606,0,0,1,43.8,7.05Zm-.375,7.185a2.807,2.807,0,0,0,1.545-.412,2.463,2.463,0,0,0,.96-1.193V11.34H43.455q-2.025,0-2.025,1.41a1.29,1.29,0,0,0,.525,1.087A2.39,2.39,0,0,0,43.425,14.235Zm9.72.84a4.1,4.1,0,0,1-2.055-.517,3.774,3.774,0,0,1-1.44-1.432,4.084,4.084,0,0,1-.525-2.07,4.084,4.084,0,0,1,.525-2.07A3.72,3.72,0,0,1,51.09,7.56a4.4,4.4,0,0,1,4.11,0,3.668,3.668,0,0,1,1.432,1.425,4.131,4.131,0,0,1,.518,2.07,4.131,4.131,0,0,1-.518,2.07A3.721,3.721,0,0,1,55.2,14.557,4.1,4.1,0,0,1,53.145,15.075Zm0-.945a2.977,2.977,0,0,0,1.507-.383,2.667,2.667,0,0,0,1.042-1.087,3.365,3.365,0,0,0,.375-1.6,3.365,3.365,0,0,0-.375-1.605,2.667,2.667,0,0,0-1.042-1.088,3.162,3.162,0,0,0-3.015,0,2.716,2.716,0,0,0-1.05,1.088,3.311,3.311,0,0,0-.382,1.605,3.311,3.311,0,0,0,.382,1.6,2.716,2.716,0,0,0,1.05,1.087A2.977,2.977,0,0,0,53.145,14.13Zm8.295.945A6.058,6.058,0,0,1,59.6,14.8a3.952,3.952,0,0,1-1.373-.7l.48-.84a4.042,4.042,0,0,0,1.245.637,4.946,4.946,0,0,0,1.56.247,2.979,2.979,0,0,0,1.6-.337,1.074,1.074,0,0,0,.518-.953.856.856,0,0,0-.285-.682,1.893,1.893,0,0,0-.72-.375,10.27,10.27,0,0,0-1.155-.247,13.242,13.242,0,0,1-1.545-.368,2.27,2.27,0,0,1-1-.637A1.773,1.773,0,0,1,58.515,9.3a1.951,1.951,0,0,1,.825-1.62,3.7,3.7,0,0,1,2.3-.63,5.957,5.957,0,0,1,1.53.2,4.21,4.21,0,0,1,1.26.532l-.465.855a3.982,3.982,0,0,0-2.325-.675,2.7,2.7,0,0,0-1.538.36,1.1,1.1,0,0,0-.517.945.933.933,0,0,0,.292.72,1.8,1.8,0,0,0,.727.4,11.74,11.74,0,0,0,1.2.262,13.8,13.8,0,0,1,1.515.36,2.226,2.226,0,0,1,.975.615,1.692,1.692,0,0,1,.4,1.2,1.908,1.908,0,0,1-.862,1.642A4.1,4.1,0,0,1,61.44,15.075ZM74.52,3.87h1.065V15H74.52Zm4.035,3.24H79.62V15H78.555Zm.54-1.725a.754.754,0,0,1-.555-.225.736.736,0,0,1-.225-.54.72.72,0,0,1,.225-.525A.754.754,0,0,1,79.1,3.87a.768.768,0,0,1,.555.218.7.7,0,0,1,.225.517.768.768,0,0,1-.78.78Zm10.365,6h-6.6a2.82,2.82,0,0,0,.945,1.987,3.137,3.137,0,0,0,2.16.758,3.4,3.4,0,0,0,1.35-.262A2.949,2.949,0,0,0,88.38,13.1l.6.69a3.379,3.379,0,0,1-1.312.96,4.439,4.439,0,0,1-1.732.33,4.38,4.38,0,0,1-2.153-.517,3.731,3.731,0,0,1-1.463-1.432,4.084,4.084,0,0,1-.525-2.07,4.228,4.228,0,0,1,.5-2.07,3.639,3.639,0,0,1,1.38-1.425,3.853,3.853,0,0,1,1.972-.51,3.813,3.813,0,0,1,1.965.51A3.615,3.615,0,0,1,88.98,8.977a4.268,4.268,0,0,1,.5,2.078Zm-3.81-3.42a2.683,2.683,0,0,0-1.912.727,2.857,2.857,0,0,0-.878,1.9h5.6a2.857,2.857,0,0,0-.877-1.9A2.7,2.7,0,0,0,85.65,7.965Zm8.115,7.11a6.058,6.058,0,0,1-1.838-.278,3.952,3.952,0,0,1-1.372-.7l.48-.84a4.042,4.042,0,0,0,1.245.637,4.946,4.946,0,0,0,1.56.247,2.979,2.979,0,0,0,1.6-.337,1.074,1.074,0,0,0,.518-.953.856.856,0,0,0-.285-.682,1.893,1.893,0,0,0-.72-.375A10.27,10.27,0,0,0,93.8,11.55a13.242,13.242,0,0,1-1.545-.368,2.27,2.27,0,0,1-1-.637A1.773,1.773,0,0,1,90.84,9.3a1.951,1.951,0,0,1,.825-1.62,3.7,3.7,0,0,1,2.295-.63,5.957,5.957,0,0,1,1.53.2,4.21,4.21,0,0,1,1.26.532l-.465.855a3.982,3.982,0,0,0-2.325-.675,2.7,2.7,0,0,0-1.537.36,1.1,1.1,0,0,0-.518.945.933.933,0,0,0,.293.72,1.8,1.8,0,0,0,.728.4,11.739,11.739,0,0,0,1.2.262,13.8,13.8,0,0,1,1.515.36,2.226,2.226,0,0,1,.975.615,1.692,1.692,0,0,1,.405,1.2,1.908,1.908,0,0,1-.863,1.642A4.1,4.1,0,0,1,93.765,15.075Zm13.305-.555a2.017,2.017,0,0,1-.743.412,2.991,2.991,0,0,1-.923.142,2.313,2.313,0,0,1-1.71-.6,2.292,2.292,0,0,1-.6-1.7V8.01h-1.41v-.9h1.41V5.385h1.065V7.11h2.4v.9h-2.4v4.71a1.491,1.491,0,0,0,.352,1.073,1.338,1.338,0,0,0,1.013.368,1.959,1.959,0,0,0,.637-.1,1.585,1.585,0,0,0,.533-.3Zm5.955-7.47a3.224,3.224,0,0,1,2.363.862,3.369,3.369,0,0,1,.878,2.512V15H115.2V10.53a2.615,2.615,0,0,0-.615-1.875,2.31,2.31,0,0,0-1.755-.645,2.7,2.7,0,0,0-2.017.757,2.861,2.861,0,0,0-.743,2.092V15h-1.065V3.87h1.065V8.49a2.887,2.887,0,0,1,1.2-1.065A3.938,3.938,0,0,1,113.025,7.05Zm13.035,4.335h-6.6a2.82,2.82,0,0,0,.945,1.987,3.137,3.137,0,0,0,2.16.758,3.4,3.4,0,0,0,1.35-.262,2.949,2.949,0,0,0,1.065-.773l.6.69a3.379,3.379,0,0,1-1.312.96,4.439,4.439,0,0,1-1.732.33,4.38,4.38,0,0,1-2.153-.517,3.731,3.731,0,0,1-1.463-1.432,4.084,4.084,0,0,1-.525-2.07,4.228,4.228,0,0,1,.5-2.07,3.639,3.639,0,0,1,1.38-1.425,3.853,3.853,0,0,1,1.972-.51,3.813,3.813,0,0,1,1.965.51,3.615,3.615,0,0,1,1.365,1.418,4.268,4.268,0,0,1,.5,2.078Zm-3.81-3.42a2.683,2.683,0,0,0-1.912.727,2.857,2.857,0,0,0-.878,1.9h5.6a2.857,2.857,0,0,0-.877-1.9A2.7,2.7,0,0,0,122.25,7.965ZM134.445,5.46h-3.69V4.5h8.49v.96h-3.69V15h-1.11Zm7.155,3.2a2.581,2.581,0,0,1,1.117-1.2,3.8,3.8,0,0,1,1.838-.405V8.085L144.3,8.07a2.52,2.52,0,0,0-1.95.765,3.048,3.048,0,0,0-.705,2.145V15H140.58V7.11h1.02ZM153.7,7.11V15h-1.02V13.56a2.921,2.921,0,0,1-1.155,1.118,3.475,3.475,0,0,1-1.68.4,3.36,3.36,0,0,1-2.437-.863,3.357,3.357,0,0,1-.893-2.528V7.11h1.065v4.47a2.638,2.638,0,0,0,.615,1.89,2.31,2.31,0,0,0,1.755.645,2.582,2.582,0,0,0,1.965-.757,2.936,2.936,0,0,0,.72-2.108V7.11Zm7.14,7.41a2.017,2.017,0,0,1-.742.412,2.991,2.991,0,0,1-.923.142,2.313,2.313,0,0,1-1.71-.6,2.292,2.292,0,0,1-.6-1.7V8.01h-1.41v-.9h1.41V5.385h1.065V7.11h2.4v.9h-2.4v4.71a1.491,1.491,0,0,0,.353,1.073,1.338,1.338,0,0,0,1.012.368,1.959,1.959,0,0,0,.637-.1,1.585,1.585,0,0,0,.533-.3ZM166.8,7.05a3.224,3.224,0,0,1,2.362.862,3.369,3.369,0,0,1,.878,2.512V15h-1.065V10.53a2.615,2.615,0,0,0-.615-1.875A2.31,2.31,0,0,0,166.6,8.01a2.7,2.7,0,0,0-2.018.757,2.861,2.861,0,0,0-.742,2.092V15H162.78V3.87h1.065V8.49a2.887,2.887,0,0,1,1.2-1.065A3.938,3.938,0,0,1,166.8,7.05Z" transform="translate(395 233)" fill="#607d8b"/>
    <g id="Group_20" transform="translate(345 189)">
      <path id="Path_3" d="M805.877,372.08q0-13.451-.006-26.9a.419.419,0,0,1,.311-.474c1.839-.717,3.673-1.451,5.506-2.187a.413.413,0,0,1,.425.047q8.709,5.546,17.423,11.085,5.829,3.707,11.66,7.411a.475.475,0,0,1,.241.381A25.13,25.13,0,0,1,841.6,365c0,.858,0,1.716-.014,2.574A39.285,39.285,0,0,1,839.724,379a34.438,34.438,0,0,1-6.429,11.676,32.827,32.827,0,0,1-10.434,8.25,37.148,37.148,0,0,1-10.88,3.482.681.681,0,0,1-.463-.067q-2.7-1.452-5.416-2.887a.372.372,0,0,1-.228-.389Q805.879,385.573,805.877,372.08Zm5.3.194V354.359c.121.066.218.116.313.171q6.832,3.943,13.663,7.891a.308.308,0,0,0,.361,0c.575-.341,1.156-.67,1.734-1l1.433-.829-21.437-14.012v48.856c0,.956,0,1.913,0,2.869a.283.283,0,0,0,.169.3c1.182.622,2.359,1.253,3.539,1.881.059.032.122.056.216.1v-.281q0-5.4-.008-10.8,0-6.193-.006-12.386a.364.364,0,0,1,.228-.371q4.335-2.337,8.664-4.686l19.141-10.366c.064-.035.126-.074.214-.126-.091-.062-.152-.106-.216-.147l-7.333-4.665q-9.959-6.334-19.918-12.669a.337.337,0,0,0-.348-.034c-1.122.452-2.247.9-3.371,1.341-.042.017-.083.039-.163.078l23.251,15.2Zm1.351,28.64c.068-.01.1-.012.135-.02,1.365-.332,2.749-.6,4.093-1.006a31.991,31.991,0,0,0,19.611-16.324,35.864,35.864,0,0,0,3.7-13.195c.2-2.288.158-4.58.151-6.873,0-.255-.024-.511-.038-.789-.087.042-.138.065-.187.092l-8.865,4.8q-9.172,4.967-18.345,9.929a.435.435,0,0,0-.273.447q.015,10.435.014,20.869v2.069Zm.012-44.194v13.167c.054-.025.092-.039.127-.059,1.024-.589,2.047-1.181,3.072-1.765a.269.269,0,0,0,.134-.28q0-4.462,0-8.924a.325.325,0,0,0-.2-.329c-.418-.23-.828-.477-1.242-.715Zm11.418,6.592-6.707-3.873v7.744Z" transform="translate(-805.871 -342.48)" fill="#78909c"/>
      <path id="Path_4" d="M842.331,387.067c.648,11.988-7.97,23.362-19.548,25.757,0-.078-.01-.151-.01-.225q0-7.363-.005-14.726a.364.364,0,0,1,.226-.372q9.569-5.159,19.132-10.327C842.187,387.141,842.249,387.109,842.331,387.067Zm-18.182,23.978c9.5-2.671,16.465-12.08,16.786-21.656a1.32,1.32,0,0,0-.135.056c-1.175.635-2.348,1.272-3.527,1.9a.353.353,0,0,0-.185.3,23.291,23.291,0,0,1-.93,3.76,17.88,17.88,0,0,1-4.3,7.048,17.228,17.228,0,0,1-6.141,3.917c-.518.195-1.046.364-1.573.547Zm-.01-5.565a16.1,16.1,0,0,0,7.616-4.948,17.988,17.988,0,0,0,3.821-8.253c-.095.046-.151.072-.205.1q-5.509,2.975-11.02,5.947a.348.348,0,0,0-.216.356q.01,3.269,0,6.538Z" transform="translate(-812.507 -359.99)" fill="#78909c"/>
    </g>
    <path id="Path_40" d="M4.346-6.616V0H2.295V-17.5H7.1a6.348,6.348,0,0,1,4.352,1.367A4.882,4.882,0,0,1,13-12.28,5.305,5.305,0,0,1,11.285-8.2,6.553,6.553,0,0,1,6.653-6.616Zm0-9.033v7.178H6.494a4.8,4.8,0,0,0,3.241-.97,3.436,3.436,0,0,0,1.117-2.74q0-3.467-4.1-3.467ZM29.137,0H26.867L25.011-4.907H17.589L15.844,0H13.561l6.714-17.5H22.4Zm-4.8-6.75-2.747-7.458a7.142,7.142,0,0,1-.269-1.172h-.049A6.538,6.538,0,0,1,21-14.209L18.273-6.75ZM45.262,0H42.82l-2.93-4.907a10.688,10.688,0,0,0-.781-1.166,4.454,4.454,0,0,0-.775-.787,2.685,2.685,0,0,0-.854-.446,3.514,3.514,0,0,0-1.031-.14H34.764V0H32.713V-17.5h5.225a7.446,7.446,0,0,1,2.118.287,4.739,4.739,0,0,1,1.685.873,4.056,4.056,0,0,1,1.117,1.459,4.837,4.837,0,0,1,.4,2.045,4.924,4.924,0,0,1-.275,1.678A4.384,4.384,0,0,1,42.2-9.8a4.736,4.736,0,0,1-1.221,1.019,6.232,6.232,0,0,1-1.605.653v.049a3.692,3.692,0,0,1,.763.446,4.2,4.2,0,0,1,.616.592,7.842,7.842,0,0,1,.58.775q.287.433.641,1.007Zm-10.5-15.649V-9.3h2.783a4.221,4.221,0,0,0,1.422-.232A3.292,3.292,0,0,0,40.1-10.2a3.017,3.017,0,0,0,.745-1.062,3.555,3.555,0,0,0,.269-1.41,2.744,2.744,0,0,0-.909-2.191,3.907,3.907,0,0,0-2.631-.787ZM62.216,0H59.946L58.09-4.907H50.668L48.923,0H46.64l6.714-17.5h2.124Zm-4.8-6.75-2.747-7.458a7.142,7.142,0,0,1-.269-1.172h-.049a6.538,6.538,0,0,1-.281,1.172L51.352-6.75ZM65.792,0V-17.5h4.834q9.253,0,9.253,8.533a8.6,8.6,0,0,1-2.57,6.512A9.532,9.532,0,0,1,70.431,0Zm2.051-15.649V-1.855h2.612A7.414,7.414,0,0,0,75.814-3.7,6.91,6.91,0,0,0,77.73-8.923q0-6.726-7.153-6.726ZM86.372,0H84.321V-17.5h2.051ZM105.06-1.2A11.706,11.706,0,0,1,99.2.293,8.007,8.007,0,0,1,93.14-2.124a8.865,8.865,0,0,1-2.313-6.4,9.1,9.1,0,0,1,2.57-6.671A8.76,8.76,0,0,1,99.909-17.8a11.083,11.083,0,0,1,4.8.928V-14.6a9.213,9.213,0,0,0-5.029-1.343,6.283,6.283,0,0,0-4.822,2.026,7.411,7.411,0,0,0-1.88,5.249,7.415,7.415,0,0,0,1.746,5.219,6.118,6.118,0,0,0,4.736,1.9,7.318,7.318,0,0,0,3.552-.818V-7.275H99.176V-9.131h5.884ZM127.972,0h-2.039V-11.743q0-1.392.171-3.406h-.049a10.888,10.888,0,0,1-.525,1.7L119.549,0h-1l-5.969-13.354a10.463,10.463,0,0,1-.525-1.794H112q.1,1.05.1,3.43V0h-1.978V-17.5h2.71L118.206-5.3a15.63,15.63,0,0,1,.806,2.1h.073q.525-1.44.842-2.148L125.408-17.5h2.563Z" transform="translate(395 225.372)" fill="#546e7a"/>
  </g>
</svg>
