<svg xmlns="http://www.w3.org/2000/svg" width="179" height="55.914" viewBox="0 0 179 55.914">
  <g id="Group_66" data-name="Group 66" transform="translate(-923 -393.586)">
    <text id="In_Chaos_lies_the_Truth" data-name="In Chaos lies the Truth" transform="translate(967 443)" fill="#78909c" font-size="12" font-family="Montserrat-Regular, Montserrat"><tspan x="0" y="0">In Chaos lies the Truth</tspan></text>
    <text id="Paradigm" transform="translate(966 428)" fill="#37474f" font-size="25" font-family="SegoeUI, Segoe UI" letter-spacing="0.04em"><tspan x="0" y="0">PARADIGM</tspan></text>
    <g id="Paradigm_Fund._Logo" data-name="Paradigm Fund. Logo" transform="translate(923 393.586)">
      <path id="Path_3" data-name="Path 3" d="M805.877,370.091q0-12.547-.006-25.094a.391.391,0,0,1,.29-.442c1.716-.669,3.427-1.353,5.136-2.04a.386.386,0,0,1,.4.044q8.123,5.173,16.252,10.34,5.438,3.458,10.877,6.913a.443.443,0,0,1,.225.356,23.44,23.44,0,0,1,.151,3.318c0,.8,0,1.6-.013,2.4a36.644,36.644,0,0,1-1.735,10.659,32.124,32.124,0,0,1-6,10.891,30.623,30.623,0,0,1-9.733,7.7,34.651,34.651,0,0,1-10.149,3.248.635.635,0,0,1-.432-.062q-2.522-1.355-5.052-2.693a.347.347,0,0,1-.213-.363Q805.878,382.678,805.877,370.091Zm4.941.181V353.561c.113.061.2.108.292.159q6.373,3.678,12.745,7.36a.288.288,0,0,0,.337,0c.536-.318,1.078-.625,1.618-.936l1.337-.773-20-13.071v45.574c0,.892,0,1.784,0,2.677a.264.264,0,0,0,.158.276c1.1.581,2.2,1.169,3.3,1.754.055.029.113.052.2.092v-.262q0-5.039-.008-10.078,0-5.777-.006-11.554a.34.34,0,0,1,.213-.346q4.044-2.18,8.082-4.371l17.855-9.669c.06-.033.118-.069.2-.117-.085-.058-.142-.1-.2-.137l-6.84-4.351q-9.29-5.908-18.579-11.818a.315.315,0,0,0-.325-.032c-1.046.421-2.1.835-3.145,1.251-.04.016-.077.037-.152.073l21.689,14.178Zm1.26,26.716c.063-.009.1-.011.126-.019,1.273-.309,2.565-.563,3.818-.939A29.841,29.841,0,0,0,834.315,380.8a33.455,33.455,0,0,0,3.456-12.308c.19-2.134.147-4.272.141-6.411,0-.238-.022-.476-.035-.736-.082.04-.129.061-.174.086l-8.27,4.479q-8.555,4.633-17.112,9.262a.406.406,0,0,0-.254.417q.014,9.734.013,19.467v1.93Zm.011-41.225v12.283c.05-.023.086-.036.118-.055.955-.549,1.909-1.1,2.866-1.647a.251.251,0,0,0,.125-.261q0-4.162,0-8.325a.3.3,0,0,0-.182-.307c-.39-.215-.773-.445-1.158-.667Zm10.651,6.149-6.256-3.612v7.224Z" transform="translate(-805.871 -342.48)" fill="#37474f"/>
      <path id="Path_4" data-name="Path 4" d="M841.016,387.067c.6,11.182-7.435,21.792-18.234,24.026,0-.072-.009-.141-.009-.21q0-6.868-.005-13.736a.339.339,0,0,1,.211-.347q8.926-4.812,17.846-9.633C840.882,387.136,840.94,387.107,841.016,387.067Zm-16.96,22.367c8.861-2.492,15.359-11.268,15.658-20.2a1.229,1.229,0,0,0-.126.053c-1.1.592-2.191,1.187-3.29,1.774a.329.329,0,0,0-.172.282,21.726,21.726,0,0,1-.867,3.508,16.679,16.679,0,0,1-4.007,6.574,16.071,16.071,0,0,1-5.728,3.654c-.483.182-.975.34-1.467.51Zm-.01-5.191a15.022,15.022,0,0,0,7.1-4.615,16.778,16.778,0,0,0,3.564-7.7c-.088.043-.141.067-.191.095q-5.139,2.775-10.279,5.547a.324.324,0,0,0-.2.332q.009,3.05,0,6.1Z" transform="translate(-813.196 -361.809)" fill="#37474f"/>
    </g>
  </g>
</svg>
