<svg xmlns="http://www.w3.org/2000/svg" width="151.709" height="125.724" viewBox="0 0 151.709 125.724">
  <g id="Group_40" transform="translate(-877 -450.616)">
    <g id="Group_37" transform="translate(915 576.34) rotate(-90)">
      <path id="Path_3" d="M805.879,379.545q0-16.843-.008-33.686a.525.525,0,0,1,.39-.593c2.3-.9,4.6-1.817,6.894-2.738a.517.517,0,0,1,.532.059q10.9,6.944,21.817,13.88,7.3,4.641,14.6,9.28a.6.6,0,0,1,.3.478,31.471,31.471,0,0,1,.2,4.455c0,1.074,0,2.148-.017,3.223a49.193,49.193,0,0,1-2.329,14.308,43.123,43.123,0,0,1-8.051,14.62,41.107,41.107,0,0,1-13.065,10.331,46.515,46.515,0,0,1-13.624,4.36.853.853,0,0,1-.579-.084q-3.386-1.818-6.782-3.614a.466.466,0,0,1-.286-.487Q805.881,396.441,805.879,379.545Zm6.633.243V357.355c.151.082.273.145.392.214q8.555,4.938,17.109,9.881a.386.386,0,0,0,.452,0c.719-.427,1.447-.839,2.172-1.257l1.794-1.038L807.587,347.6v61.177c0,1.2,0,2.4,0,3.593a.354.354,0,0,0,.211.371c1.48.779,2.954,1.57,4.431,2.355.074.04.152.07.27.123v-.352q-.005-6.764-.01-13.528,0-7.754-.008-15.509a.456.456,0,0,1,.286-.465q5.429-2.927,10.849-5.868l23.968-12.98c.081-.044.158-.093.268-.157-.114-.078-.191-.133-.271-.184l-9.182-5.841q-12.471-7.931-24.941-15.865a.423.423,0,0,0-.436-.043c-1.4.566-2.814,1.121-4.221,1.679-.053.021-.1.049-.2.1l29.115,19.032ZM814.2,415.65c.085-.012.128-.015.17-.025,1.709-.415,3.443-.755,5.125-1.26a40.058,40.058,0,0,0,24.556-20.441,44.91,44.91,0,0,0,4.639-16.522c.255-2.865.2-5.735.189-8.606,0-.319-.03-.64-.047-.988-.109.053-.173.081-.234.115l-11.1,6.012q-11.485,6.219-22.972,12.433a.544.544,0,0,0-.342.56q.019,13.066.017,26.132v2.591Zm.015-55.339V376.8c.068-.031.116-.049.159-.074,1.282-.738,2.563-1.478,3.847-2.211a.337.337,0,0,0,.167-.351q0-5.587,0-11.175a.408.408,0,0,0-.245-.412c-.524-.288-1.037-.6-1.555-.9Zm14.3,8.255-8.4-4.849v9.7Z" transform="translate(-805.871 -342.48)" fill="#78909c"/>
      <path id="Path_4" d="M847.264,387.067c.812,15.011-9.98,29.254-24.477,32.252,0-.1-.012-.189-.012-.281q0-9.22-.007-18.439a.456.456,0,0,1,.283-.465q11.982-6.46,23.957-12.931C847.084,387.16,847.162,387.12,847.264,387.067ZM824.5,417.093c11.894-3.345,20.617-15.126,21.019-27.117a1.667,1.667,0,0,0-.17.071c-1.471.795-2.941,1.593-4.416,2.381a.442.442,0,0,0-.231.379,29.17,29.17,0,0,1-1.164,4.709,22.39,22.39,0,0,1-5.379,8.825,21.573,21.573,0,0,1-7.69,4.9c-.649.244-1.309.456-1.969.685Zm-.013-6.969a20.165,20.165,0,0,0,9.536-6.2,22.524,22.524,0,0,0,4.785-10.334c-.119.058-.189.09-.257.127q-6.9,3.725-13.8,7.446a.435.435,0,0,0-.271.446q.013,4.094.006,8.187Z" transform="translate(-809.919 -353.161)" fill="#78909c"/>
    </g>
    <g id="Group_38" transform="translate(930.074 450.616) rotate(45)">
      <path id="Path_3-2" d="M805.879,379.545q0-16.843-.008-33.686a.525.525,0,0,1,.39-.593c2.3-.9,4.6-1.817,6.894-2.738a.517.517,0,0,1,.532.059q10.9,6.944,21.817,13.88,7.3,4.641,14.6,9.28a.6.6,0,0,1,.3.478,31.471,31.471,0,0,1,.2,4.455c0,1.074,0,2.148-.017,3.223a49.193,49.193,0,0,1-2.329,14.308,43.123,43.123,0,0,1-8.051,14.62,41.107,41.107,0,0,1-13.065,10.331,46.515,46.515,0,0,1-13.624,4.36.853.853,0,0,1-.579-.084q-3.386-1.818-6.782-3.614a.466.466,0,0,1-.286-.487Q805.881,396.441,805.879,379.545Zm6.633.243V357.355c.151.082.273.145.392.214q8.555,4.938,17.109,9.881a.386.386,0,0,0,.452,0c.719-.427,1.447-.839,2.172-1.257l1.794-1.038L807.587,347.6v61.177c0,1.2,0,2.4,0,3.593a.354.354,0,0,0,.211.371c1.48.779,2.954,1.57,4.431,2.355.074.04.152.07.27.123v-.352q-.005-6.764-.01-13.528,0-7.754-.008-15.509a.456.456,0,0,1,.286-.465q5.429-2.927,10.849-5.868l23.968-12.98c.081-.044.158-.093.268-.157-.114-.078-.191-.133-.271-.184l-9.182-5.841q-12.471-7.931-24.941-15.865a.423.423,0,0,0-.436-.043c-1.4.566-2.814,1.121-4.221,1.679-.053.021-.1.049-.2.1l29.115,19.032ZM814.2,415.65c.085-.012.128-.015.17-.025,1.709-.415,3.443-.755,5.125-1.26a40.058,40.058,0,0,0,24.556-20.441,44.91,44.91,0,0,0,4.639-16.522c.255-2.865.2-5.735.189-8.606,0-.319-.03-.64-.047-.988-.109.053-.173.081-.234.115l-11.1,6.012q-11.485,6.219-22.972,12.433a.544.544,0,0,0-.342.56q.019,13.066.017,26.132v2.591Zm.015-55.339V376.8c.068-.031.116-.049.159-.074,1.282-.738,2.563-1.478,3.847-2.211a.337.337,0,0,0,.167-.351q0-5.587,0-11.175a.408.408,0,0,0-.245-.412c-.524-.288-1.037-.6-1.555-.9Zm14.3,8.255-8.4-4.849v9.7Z" transform="translate(-805.871 -342.48)" fill="#78909c"/>
      <path id="Path_4-2" d="M847.264,387.067c.812,15.011-9.98,29.254-24.477,32.252,0-.1-.012-.189-.012-.281q0-9.22-.007-18.439a.456.456,0,0,1,.283-.465q11.982-6.46,23.957-12.931C847.084,387.16,847.162,387.12,847.264,387.067ZM824.5,417.093c11.894-3.345,20.617-15.126,21.019-27.117a1.667,1.667,0,0,0-.17.071c-1.471.795-2.941,1.593-4.416,2.381a.442.442,0,0,0-.231.379,29.17,29.17,0,0,1-1.164,4.709,22.39,22.39,0,0,1-5.379,8.825,21.573,21.573,0,0,1-7.69,4.9c-.649.244-1.309.456-1.969.685Zm-.013-6.969a20.165,20.165,0,0,0,9.536-6.2,22.524,22.524,0,0,0,4.785-10.334c-.119.058-.189.09-.257.127q-6.9,3.725-13.8,7.446a.435.435,0,0,0-.271.446q.013,4.094.006,8.187Z" transform="translate(-809.919 -353.161)" fill="#78909c"/>
    </g>
    <g id="Group_39" transform="translate(1028.709 503.69) rotate(135)">
      <path id="Path_3-3" d="M805.879,379.545q0-16.843-.008-33.686a.525.525,0,0,1,.39-.593c2.3-.9,4.6-1.817,6.894-2.738a.517.517,0,0,1,.532.059q10.9,6.944,21.817,13.88,7.3,4.641,14.6,9.28a.6.6,0,0,1,.3.478,31.471,31.471,0,0,1,.2,4.455c0,1.074,0,2.148-.017,3.223a49.193,49.193,0,0,1-2.329,14.308,43.123,43.123,0,0,1-8.051,14.62,41.107,41.107,0,0,1-13.065,10.331,46.515,46.515,0,0,1-13.624,4.36.853.853,0,0,1-.579-.084q-3.386-1.818-6.782-3.614a.466.466,0,0,1-.286-.487Q805.881,396.441,805.879,379.545Zm6.633.243V357.355c.151.082.273.145.392.214q8.555,4.938,17.109,9.881a.386.386,0,0,0,.452,0c.719-.427,1.447-.839,2.172-1.257l1.794-1.038L807.587,347.6v61.177c0,1.2,0,2.4,0,3.593a.354.354,0,0,0,.211.371c1.48.779,2.954,1.57,4.431,2.355.074.04.152.07.27.123v-.352q-.005-6.764-.01-13.528,0-7.754-.008-15.509a.456.456,0,0,1,.286-.465q5.429-2.927,10.849-5.868l23.968-12.98c.081-.044.158-.093.268-.157-.114-.078-.191-.133-.271-.184l-9.182-5.841q-12.471-7.931-24.941-15.865a.423.423,0,0,0-.436-.043c-1.4.566-2.814,1.121-4.221,1.679-.053.021-.1.049-.2.1l29.115,19.032ZM814.2,415.65c.085-.012.128-.015.17-.025,1.709-.415,3.443-.755,5.125-1.26a40.058,40.058,0,0,0,24.556-20.441,44.91,44.91,0,0,0,4.639-16.522c.255-2.865.2-5.735.189-8.606,0-.319-.03-.64-.047-.988-.109.053-.173.081-.234.115l-11.1,6.012q-11.485,6.219-22.972,12.433a.544.544,0,0,0-.342.56q.019,13.066.017,26.132v2.591Zm.015-55.339V376.8c.068-.031.116-.049.159-.074,1.282-.738,2.563-1.478,3.847-2.211a.337.337,0,0,0,.167-.351q0-5.587,0-11.175a.408.408,0,0,0-.245-.412c-.524-.288-1.037-.6-1.555-.9Zm14.3,8.255-8.4-4.849v9.7Z" transform="translate(-805.871 -342.48)" fill="#78909c"/>
      <path id="Path_4-3" d="M847.264,387.067c.812,15.011-9.98,29.254-24.477,32.252,0-.1-.012-.189-.012-.281q0-9.22-.007-18.439a.456.456,0,0,1,.283-.465q11.982-6.46,23.957-12.931C847.084,387.16,847.162,387.12,847.264,387.067ZM824.5,417.093c11.894-3.345,20.617-15.126,21.019-27.117a1.667,1.667,0,0,0-.17.071c-1.471.795-2.941,1.593-4.416,2.381a.442.442,0,0,0-.231.379,29.17,29.17,0,0,1-1.164,4.709,22.39,22.39,0,0,1-5.379,8.825,21.573,21.573,0,0,1-7.69,4.9c-.649.244-1.309.456-1.969.685Zm-.013-6.969a20.165,20.165,0,0,0,9.536-6.2,22.524,22.524,0,0,0,4.785-10.334c-.119.058-.189.09-.257.127q-6.9,3.725-13.8,7.446a.435.435,0,0,0-.271.446q.013,4.094.006,8.187Z" transform="translate(-809.919 -353.161)" fill="#78909c"/>
    </g>
  </g>
</svg>
