<svg id="Paradigm_Fund._Logo" data-name="Paradigm Fund. Logo" xmlns="http://www.w3.org/2000/svg" width="79.937" height="134.11" viewBox="0 0 79.937 134.11">
  <path id="Path_3" data-name="Path 3" d="M805.885,408.706q0-30.094-.014-60.187a.938.938,0,0,1,.7-1.06c4.115-1.6,8.219-3.246,12.318-4.893a.925.925,0,0,1,.951.106q19.484,12.408,38.98,24.8,13.042,8.293,26.088,16.581a1.064,1.064,0,0,1,.539.853,56.227,56.227,0,0,1,.361,7.959c-.008,1.919,0,3.838-.031,5.758a87.892,87.892,0,0,1-4.162,25.564,77.048,77.048,0,0,1-14.385,26.123,73.447,73.447,0,0,1-23.344,18.458,83.111,83.111,0,0,1-24.343,7.791,1.524,1.524,0,0,1-1.035-.149q-6.049-3.249-12.117-6.458a.833.833,0,0,1-.511-.871Q805.889,438.894,805.885,408.706Zm11.851.433V369.058c.27.147.488.26.7.382q15.286,8.823,30.568,17.654a.69.69,0,0,0,.807-.007c1.286-.762,2.586-1.5,3.881-2.246,1.046-.6,2.091-1.209,3.206-1.855l-47.961-31.35V460.944c0,2.14.005,4.28-.007,6.42a.634.634,0,0,0,.378.663c2.644,1.393,5.278,2.8,7.917,4.208.132.071.272.125.482.22v-.629q-.01-12.086-.019-24.172-.006-13.855-.014-27.711a.815.815,0,0,1,.511-.83q9.7-5.23,19.384-10.484l42.824-23.192c.144-.079.283-.166.478-.281-.2-.139-.341-.238-.484-.329q-8.2-5.22-16.406-10.436Q841.7,360.22,819.419,346.045a.755.755,0,0,0-.778-.076c-2.509,1.011-5.027,2-7.542,3-.1.038-.185.088-.365.175,17.36,11.348,34.652,22.65,52.02,34C847.718,391.83,832.768,400.461,817.735,409.139Zm3.023,64.077c.151-.022.228-.027.3-.045,3.054-.742,6.151-1.349,9.156-2.251A71.574,71.574,0,0,0,874.094,434.4a80.242,80.242,0,0,0,8.288-29.521c.455-5.118.353-10.248.337-15.377,0-.571-.053-1.143-.084-1.765-.2.1-.31.145-.418.205l-19.835,10.742q-20.52,11.112-41.044,22.214a.973.973,0,0,0-.61,1q.034,23.346.031,46.691v4.629Zm.027-98.877V403.8c.121-.056.207-.087.284-.132,2.291-1.318,4.579-2.641,6.874-3.95a.6.6,0,0,0,.3-.626q-.006-9.983.005-19.966a.728.728,0,0,0-.438-.736c-.936-.515-1.853-1.067-2.778-1.6C823.643,375.986,822.255,375.187,820.786,374.339Zm25.547,14.749-15.006-8.665V397.75Z" transform="translate(-805.871 -342.48)" fill="#37474f"/>
  <path id="Path_4" data-name="Path 4" d="M866.537,387.067c1.451,26.821-17.832,52.269-43.735,57.626-.008-.174-.022-.338-.022-.5q0-16.474-.012-32.946a.814.814,0,0,1,.505-.832q21.408-11.542,42.8-23.105C866.215,387.233,866.353,387.162,866.537,387.067Zm-40.679,53.648c21.252-5.977,36.838-27.026,37.555-48.451a2.938,2.938,0,0,0-.3.126c-2.629,1.42-5.254,2.847-7.89,4.254a.79.79,0,0,0-.413.677,52.108,52.108,0,0,1-2.08,8.413,40,40,0,0,1-9.61,15.768,38.545,38.545,0,0,1-13.74,8.764c-1.159.436-2.34.815-3.519,1.224Zm-.023-12.451a36.03,36.03,0,0,0,17.038-11.07,40.245,40.245,0,0,0,8.549-18.465c-.212.1-.338.16-.459.227q-12.326,6.656-24.655,13.3a.778.778,0,0,0-.484.8q.023,7.315.011,14.628Z" transform="translate(-799.81 -326.486)" fill="#37474f"/>
</svg>
