<svg xmlns="http://www.w3.org/2000/svg" width="71.683" height="20" viewBox="0 0 71.683 20">
  <g id="Group_67" transform="translate(-49 -254)">
    <g id="Group_20" transform="translate(49 254)">
      <path id="Path_3" d="M805.873,352.356q0-4.488,0-8.976a.14.14,0,0,1,.1-.158c.614-.239,1.226-.484,1.837-.73a.138.138,0,0,1,.142.016q2.906,1.85,5.813,3.7,1.945,1.237,3.89,2.473a.158.158,0,0,1,.08.127,8.375,8.375,0,0,1,.054,1.187c0,.286,0,.572,0,.859a13.109,13.109,0,0,1-.621,3.812,11.489,11.489,0,0,1-2.145,3.9,10.952,10.952,0,0,1-3.481,2.753,12.394,12.394,0,0,1-3.63,1.162.227.227,0,0,1-.154-.022q-.9-.484-1.807-.963a.124.124,0,0,1-.076-.13Q805.874,356.858,805.873,352.356Zm1.767.065v-5.977l.1.057q2.28,1.316,4.559,2.633a.1.1,0,0,0,.12,0c.192-.114.386-.224.579-.335l.478-.277-7.152-4.675v16.3c0,.319,0,.638,0,.957a.094.094,0,0,0,.056.1c.394.208.787.418,1.181.628.02.011.041.019.072.033v-.094q0-1.8,0-3.6,0-2.066,0-4.133a.122.122,0,0,1,.076-.124q1.447-.78,2.891-1.563l6.386-3.459.071-.042-.072-.049-2.447-1.556-6.646-4.227a.112.112,0,0,0-.116-.011c-.374.151-.75.3-1.125.447-.014.006-.028.013-.054.026l7.758,5.071Zm.451,9.556.045-.007c.456-.111.917-.2,1.365-.336a10.674,10.674,0,0,0,6.543-5.447,11.966,11.966,0,0,0,1.236-4.4c.068-.763.053-1.528.05-2.293,0-.085-.008-.17-.013-.263-.029.014-.046.022-.062.031l-2.958,1.6q-3.06,1.657-6.121,3.313a.145.145,0,0,0-.091.149q.005,3.482,0,6.963v.69Zm0-14.746v4.393c.018-.008.031-.013.042-.02.342-.2.683-.394,1.025-.589a.09.09,0,0,0,.045-.093q0-1.489,0-2.978a.109.109,0,0,0-.065-.11c-.14-.077-.276-.159-.414-.239Zm3.81,2.2-2.238-1.292v2.584Z" transform="translate(-805.871 -342.48)" fill="#78909c"/>
      <path id="Path_4" d="M829.3,387.067a8.456,8.456,0,0,1-6.522,8.594c0-.026,0-.05,0-.075q0-2.457,0-4.913a.121.121,0,0,1,.075-.124q3.193-1.721,6.383-3.446Zm-6.067,8a7.989,7.989,0,0,0,5.6-7.226.449.449,0,0,0-.045.019c-.392.212-.784.425-1.177.634a.118.118,0,0,0-.062.1,7.781,7.781,0,0,1-.31,1.255A5.966,5.966,0,0,1,825.8,392.2a5.747,5.747,0,0,1-2.049,1.307c-.173.065-.349.122-.525.183Zm0-1.857a5.373,5.373,0,0,0,2.541-1.651,6,6,0,0,0,1.275-2.754c-.032.015-.05.024-.069.034q-1.838.993-3.677,1.984a.116.116,0,0,0-.072.119q0,1.091,0,2.181Z" transform="translate(-819.344 -378.032)" fill="#78909c"/>
    </g>
    <text id="Paradigm" transform="translate(67.683 267.128)" fill="#546e7a" font-size="10" font-family="SegoeUI, Segoe UI" letter-spacing="0.04em"><tspan x="0" y="0">PARADIGM</tspan></text>
  </g>
</svg>
