<svg xmlns="http://www.w3.org/2000/svg" width="69.872" height="20" viewBox="0 0 69.872 20">
  <g id="Group_87" transform="translate(-49 -254)">
    <g id="Group_20" transform="translate(49 254)">
      <path id="Path_3" d="M805.873,352.356q0-4.488,0-8.976a.14.14,0,0,1,.1-.158c.614-.239,1.226-.484,1.837-.73a.138.138,0,0,1,.142.016q2.906,1.85,5.813,3.7,1.945,1.237,3.89,2.473a.158.158,0,0,1,.08.127,8.375,8.375,0,0,1,.054,1.187c0,.286,0,.572,0,.859a13.109,13.109,0,0,1-.621,3.812,11.489,11.489,0,0,1-2.145,3.9,10.952,10.952,0,0,1-3.481,2.753,12.394,12.394,0,0,1-3.63,1.162.227.227,0,0,1-.154-.022q-.9-.484-1.807-.963a.124.124,0,0,1-.076-.13Q805.874,356.858,805.873,352.356Zm1.767.065v-5.977l.1.057q2.28,1.316,4.559,2.633a.1.1,0,0,0,.12,0c.192-.114.386-.224.579-.335l.478-.277-7.152-4.675v16.3c0,.319,0,.638,0,.957a.094.094,0,0,0,.056.1c.394.208.787.418,1.181.628.02.011.041.019.072.033v-.094q0-1.8,0-3.6,0-2.066,0-4.133a.122.122,0,0,1,.076-.124q1.447-.78,2.891-1.563l6.386-3.459.071-.042-.072-.049-2.447-1.556-6.646-4.227a.112.112,0,0,0-.116-.011c-.374.151-.75.3-1.125.447-.014.006-.028.013-.054.026l7.758,5.071Zm.451,9.556.045-.007c.456-.111.917-.2,1.365-.336a10.674,10.674,0,0,0,6.543-5.447,11.966,11.966,0,0,0,1.236-4.4c.068-.763.053-1.528.05-2.293,0-.085-.008-.17-.013-.263-.029.014-.046.022-.062.031l-2.958,1.6q-3.06,1.657-6.121,3.313a.145.145,0,0,0-.091.149q.005,3.482,0,6.963v.69Zm0-14.746v4.393c.018-.008.031-.013.042-.02.342-.2.683-.394,1.025-.589a.09.09,0,0,0,.045-.093q0-1.489,0-2.978a.109.109,0,0,0-.065-.11c-.14-.077-.276-.159-.414-.239Zm3.81,2.2-2.238-1.292v2.584Z" transform="translate(-805.871 -342.48)" fill="#78909c"/>
      <path id="Path_4" d="M829.3,387.067a8.456,8.456,0,0,1-6.522,8.594c0-.026,0-.05,0-.075q0-2.457,0-4.913a.121.121,0,0,1,.075-.124q3.193-1.721,6.383-3.446Zm-6.067,8a7.989,7.989,0,0,0,5.6-7.226.449.449,0,0,0-.045.019c-.392.212-.784.425-1.177.634a.118.118,0,0,0-.062.1,7.781,7.781,0,0,1-.31,1.255A5.966,5.966,0,0,1,825.8,392.2a5.747,5.747,0,0,1-2.049,1.307c-.173.065-.349.122-.525.183Zm0-1.857a5.373,5.373,0,0,0,2.541-1.651,6,6,0,0,0,1.275-2.754c-.032.015-.05.024-.069.034q-1.838.993-3.677,1.984a.116.116,0,0,0-.072.119q0,1.091,0,2.181Z" transform="translate(-819.344 -378.032)" fill="#78909c"/>
    </g>
    <path id="Path_45" d="M1.738-2.646V0H.918V-7H2.842a2.539,2.539,0,0,1,1.741.547A1.953,1.953,0,0,1,5.2-4.912a2.122,2.122,0,0,1-.686,1.631,2.621,2.621,0,0,1-1.853.635Zm0-3.613v2.871H2.6a1.921,1.921,0,0,0,1.3-.388,1.374,1.374,0,0,0,.447-1.1Q4.341-6.26,2.7-6.26ZM11.655,0h-.908L10-1.963H7.036L6.338,0H5.424L8.11-7h.85ZM9.736-2.7l-1.1-2.983a2.857,2.857,0,0,1-.107-.469H8.51a2.615,2.615,0,0,1-.112.469L7.309-2.7ZM18.1,0h-.977L15.956-1.963a4.275,4.275,0,0,0-.312-.466,1.781,1.781,0,0,0-.31-.315,1.074,1.074,0,0,0-.342-.178,1.405,1.405,0,0,0-.413-.056h-.674V0h-.82V-7h2.09a2.978,2.978,0,0,1,.847.115,1.9,1.9,0,0,1,.674.349,1.622,1.622,0,0,1,.447.583,1.935,1.935,0,0,1,.161.818,1.969,1.969,0,0,1-.11.671,1.753,1.753,0,0,1-.312.544,1.894,1.894,0,0,1-.488.408,2.493,2.493,0,0,1-.642.261v.02a1.477,1.477,0,0,1,.305.178,1.679,1.679,0,0,1,.247.237,3.137,3.137,0,0,1,.232.31q.115.173.256.4Zm-4.2-6.26v2.539h1.113a1.688,1.688,0,0,0,.569-.093,1.317,1.317,0,0,0,.452-.266,1.207,1.207,0,0,0,.3-.425,1.422,1.422,0,0,0,.107-.564,1.1,1.1,0,0,0-.364-.876,1.563,1.563,0,0,0-1.052-.315ZM24.887,0h-.908l-.742-1.963H20.267L19.569,0h-.913l2.686-7h.85ZM22.968-2.7l-1.1-2.983a2.857,2.857,0,0,1-.107-.469h-.02a2.615,2.615,0,0,1-.112.469L20.541-2.7ZM26.317,0V-7H28.25q3.7,0,3.7,3.413a3.439,3.439,0,0,1-1.028,2.6A3.813,3.813,0,0,1,28.172,0Zm.82-6.26V-.742h1.045a2.966,2.966,0,0,0,2.144-.737,2.764,2.764,0,0,0,.767-2.09q0-2.69-2.861-2.69ZM34.549,0h-.82V-7h.82Zm7.475-.479a4.682,4.682,0,0,1-2.344.6A3.2,3.2,0,0,1,37.256-.85a3.546,3.546,0,0,1-.925-2.559,3.641,3.641,0,0,1,1.028-2.668,3.5,3.5,0,0,1,2.6-1.042,4.433,4.433,0,0,1,1.919.371v.908a3.685,3.685,0,0,0-2.012-.537,2.513,2.513,0,0,0-1.929.811,2.964,2.964,0,0,0-.752,2.1,2.966,2.966,0,0,0,.7,2.087,2.447,2.447,0,0,0,1.895.759A2.927,2.927,0,0,0,41.2-.947V-2.91H39.671v-.742h2.354ZM51.189,0h-.815V-4.7q0-.557.068-1.362h-.02a4.355,4.355,0,0,1-.21.679L47.82,0h-.4L45.031-5.342a4.185,4.185,0,0,1-.21-.718H44.8q.039.42.039,1.372V0H44.05V-7h1.084l2.148,4.883a6.252,6.252,0,0,1,.322.84h.029q.21-.576.337-.859L50.163-7h1.025Z" transform="translate(67.683 267.128)" fill="#546e7a"/>
  </g>
</svg>
