<svg xmlns="http://www.w3.org/2000/svg" xmlns:xlink="http://www.w3.org/1999/xlink" width="3840" height="816.929" viewBox="0 0 3840 816.929">
  <defs>
    <radialGradient id="radial-gradient" cx="0.5" cy="-0.328" r="0.5" gradientTransform="translate(0 0.543) scale(1 2.656)" gradientUnits="objectBoundingBox">
      <stop offset="0" stop-color="#eceff1"/>
      <stop offset="1" stop-color="#90a4ae"/>
    </radialGradient>
  </defs>
  <g id="Backgound._Waves" data-name="Backgound. Waves" transform="translate(0 -263)">
    <g id="Wave_3" data-name="Wave 3" transform="translate(0 -0.071)" opacity="0.3" style="mix-blend-mode: multiply;isolation: isolate">
      <path id="Wave-3" d="M1062.115,898.309c332.286,0,582.635-194.049,857.88-194.049,0,97.45,0,376.887,0,376.887H0S0,778.11,0,704.218C449.491,704.218,620.008,898.309,1062.115,898.309Z" transform="translate(0 -1.147)" opacity="0.498" fill="url(#radial-gradient)" style="mix-blend-mode: screen;isolation: isolate"/>
      <path id="Wave-3-2" data-name="Wave-3" d="M1062.115,898.309c332.286,0,582.635-194.049,857.88-194.049,0,97.45,0,376.887,0,376.887H0S0,778.11,0,704.218C449.491,704.218,620.008,898.309,1062.115,898.309Z" transform="translate(1920 -1.147)" opacity="0.498" fill="url(#radial-gradient)" style="mix-blend-mode: screen;isolation: isolate"/>
    </g>
    <g id="Wave-2" opacity="0.3" style="mix-blend-mode: multiply;isolation: isolate">
      <path id="Wave-2-2" data-name="Wave-2" d="M.159,906.943c537.842,0,753.494-363.221,1141.865-363.221,303.425,0,478.011,363.477,777.976,363.477v170.238H0S.159,975.75.159,906.943Z" transform="translate(0 2.278)" opacity="0.498" fill="url(#radial-gradient)" style="mix-blend-mode: screen;isolation: isolate"/>
      <path id="Wave-2-3" data-name="Wave-2" d="M.159,906.943c537.842,0,753.494-363.221,1141.865-363.221,303.425,0,478.011,363.477,777.976,363.477v170.238H0S.159,975.75.159,906.943Z" transform="translate(1920 2.278)" opacity="0.498" fill="url(#radial-gradient)" style="mix-blend-mode: screen;isolation: isolate"/>
    </g>
    <g id="Wave-1" transform="translate(0.091 -3.784)" opacity="0.3" style="mix-blend-mode: multiply;isolation: isolate">
      <path id="Wave-1-2" data-name="Wave-1" d="M-.091,810.682c241.266,0,382.47-187.748,516.075-187.748,160.47,0,243.1,118.285,436.665,118.285,170.187,0,359.467-476.376,504.56-474.43,190.4,2.554,240.693,543.853,462.792,543.853v272.745H0S-.091,896.033-.091,810.682Z" transform="translate(0 0.001)" opacity="0.498" fill="url(#radial-gradient)" style="mix-blend-mode: screen;isolation: isolate"/>
      <path id="Wave-1-3" data-name="Wave-1" d="M-.091,810.682c241.266,0,382.47-187.748,516.075-187.748,160.47,0,243.1,118.285,436.665,118.285,170.187,0,359.467-476.376,504.56-474.43,190.4,2.554,240.693,543.853,462.792,543.853v272.745H0S-.091,896.033-.091,810.682Z" transform="translate(1919.909 0.001)" opacity="0.498" fill="url(#radial-gradient)" style="mix-blend-mode: screen;isolation: isolate"/>
    </g>
  </g>
</svg>
